<svg version="1.1" id="Layer_1" xmlns="http://www.w3.org/2000/svg" x="0" y="0" viewBox="0 0 410 110" width="410" height="110" xml:space="preserve"><style>.st0{fill:#215193}</style><path class="st0" d="M81.3 78.3h325.6v.7H81.3zM100.5 32v.8h-3.9v-6.1c1.2 2.4 3.3 4.3 5.2 5.6l-1.3-.3zm0 4.9H89.6v-2.8h10.9v2.8zm0 4H89.6v-2.8h10.9v2.8zM87.8 32c2.6-1.5 4.6-3.3 5.7-4.5v5.3h-3.9V32h-1.8zm21-.9c-5.3-1.1-9.3-3.3-10.6-4.4h10.2c.4 0 .1-.5.1-.5s-2.4-2.1-2.8-2.3c-.5-.2-.6 0-.6 0l-1.8 1.5h-6.5V22c4.4-.4 8.1-.8 8.6-.9-2.6-1.7-1.9-1.5-4.1-2.9-2.1.9-12.1 3.5-17.7 4v.3c2.8.1 6.5-.1 10.1-.3v3.2h-12v1.2H90c-2 3-6 6.6-8.7 7.5v.3c1.9-.4 3.7-1 5.3-1.8V43h2.9v-.9h10.9v.9h2.9v-9.9c1.5.8 2.8 1.1 2.9.9.2-1 .2-2.2 1.9-2.6.5-.1.6.1.7-.3M298.4 39.4c-.2.9-1.6.5-2.3.7-.6 0-1.3-.2-1.9-.1-.1.1-.1.2 0 .2 1.1.3 2.3.4 3.1 1.2.4.4.3 1.1.4 1.6 1.1.1 2-.1 2.9-.4.4-.3.7-.4.8-1.5V37h11.8c.4 0 .1-.5.1-.5s-2.4-2.1-2.8-2.3c-.5-.2-.6 0-.6 0l-1.8 1.5h-6.7v-1.1c2-.6 5.9-1.9 5.9-1.9s-2.5-1.7-2.8-2.2l-1.1 1.1h-11.6V33h10.4c-.4.5-.9.9-1.5 1.5h-2.3v1.3h-11.1V37h11.1v2.4zM303.3 24.7s-2-.9-2.3-1c-.3-.1-.2 0-.3.1-.2.4-.5.8-.8 1.2-.6-.3-1.3-.5-2.2-.6 0 .1-.1.1 0 .1 0 0 .6.5 1.3 1.3-1.4 1.3-3.1 2.3-3.1 2.3-.7.6 1.8-.3 3.9-1.3.4.5.8 1 1.1 1.6.7.7 1.8-.8 1.1-1.8l-.6-.6c.4-.2.7-.5.9-.7l1-.6z"/><path class="st0" d="M289.3 32.5c.1-.4.4-1.1.2-2.3h20.2c-.5.9-1.1 2.1-1.7 3.3-.3.6 5.5-3.5 5.5-3.5s-2.1-1.6-2.6-1.9c0 0-.2.3-.5.9h-.2V18.9l-2.9-.4v1.3h-3.8v.9h3.8V23h-3.8v.9h3.8v2.3h-3.8v.8h3.8v2h-14.8v-2h4.5c.3 0 0-.3 0-.3s-1.4-1.2-1.6-1.3c-.3-.1-.4 0-.4 0l-.9.7h-1.6v-2.3h4.5c.3 0 0-.3 0-.3s-1.4-1.2-1.6-1.3c-.3-.1-.4 0-.4 0l-.9.7h-1.6v-2c1.1-.1 3.2-.4 4.1-.7l.8.1c.3.1.3-.4.3-.4s-2.3-1.3-2.5-1.5c-.2-.3-.5.2-.5.2l-2.2 1.7v-1.6h-2.9V29h-.2c-.2-.5-.4-1-.7-1.7-.1 0-.1 0-.2.1 0 0-.4 2.2-1.9 5.1-.4 1.2 2 1.4 2.7 0"/><path class="st0" d="M296.8 23.1c-.6.6 1.2-.2 3-1.2.3.4.5.8.7 1.3.6.7 1.8-.7 1.3-1.7-.1-.1-.2-.3-.5-.6.4-.3.7-.5.9-.8l.8-.6s-1.9-.8-2.1-1c-.3-.1-.2 0-.3.1-.2.4-.5.8-.8 1.2-.5-.3-1.2-.5-2.1-.7 0 .1-.1.1 0 .1 0 0 .6.6 1.2 1.6-.9 1.3-2.1 2.3-2.1 2.3M133.7 27.4H130c.5-1.6.9-3.1 1.1-4.1h2.6v4.1zm-6 8.4c.3-1.6 1.2-4.5 1.9-7.1h3.6c-.6 1.7-2.3 5.4-5.5 7.1m8.2-2.9h5v2.9h-5v-2.9zm0-2.5c.5-.7.9-1.3 1.1-1.7h4c.4.8.8 1.5 1.2 2.2l-1.3-.2v1h-5v-1.3zm.7-7h3.9v4.1h-3.9v-4.1zm10.7 18.4c1.2-2.5-1.3 0-.6-6.3-.1-.2-.2-.1-.3 0 0 0-1.1 2.8-2.3 4.5-.4-.1-4.4.1-5.9 0-1 0-2.5.2-2.4-1v-2h5v.9h2.9v-5c1.3 1.3 2.5 1.6 3.1 1.9.9.3.8 0 1-.3.3-1.1.4-1.9 1.7-2.3V32c-3.1-.7-4.9-.9-7-3.3H149.2c.4 0 .1-.5.1-.5s-2.4-2.1-2.8-2.3c-.5-.2-.6 0-.6 0l-1.8 1.5h-.6v-4.1h5c.4 0 .1-.5.1-.5s-2.4-2.1-2.8-2.3c-.5-.2-.6 0-.6 0l-1.7 1.4v-3l-2.9-.4V22h-3.9v-3.5h-2.9V22H130c0-.3-.1-.5-.2-.7-.3-.3-1.8-2-5.8-2.2 0 .1-.1.1 0 .2 0 0 1.8 1.3 4 4.5.6.8 1.4.4 1.8-.4h1c-1.1 3.9-2.7 7.4-4.7 11-.2.3-1 1.3-2.2 1.2l-1.1.1c-.1.1-.2.2-.1.3.6.2.3-.1.9.2 2.6.6 1.7 5 2 6.5-.1 1 3.1.6 3.4-1.9-.1-2-.7-2.9-1.5-4.2 0-.1.1-.3.1-.5h.2c2.1-.4 3.8-1.4 5.3-2.7v6.9c.2 1.5 1.5 2.2 2.5 2.2h8.7c1.8 0 2.6-.1 3-.7"/><path class="st0" d="M126 29.6c1 1 2.5-1.1 1.6-2.5-.4-.5-1.4-1.9-5-2.2 0 .1-.1.1 0 .2 0 0 1.7 1.6 3.4 4.5"/><g><path class="st0" d="M212.5 36.1v1.8H223v1.2h-10.5v1.8H223v1.2h-10.5v.9h-2.9v-8.7h2.9v.6H223v1.2z"/></g><g><path class="st0" d="M224.6 31.8h-4.8c1.2-.5 4.2-2.4 4.2-2.4s-2.3-.9-2.6-1.1c-.1 0-.7 1.3-2 3.5h-.5v-3.9h5.7v3.9zm-4.6-8-6.7.1c1.4-.9 3.8-2.5 5.3-3.7.5.7 1.5 1.7 2.6 2.7l-1.2.9zm-.8-4.1c.6-.5 1-.9.8-.9-1.4-.3-3.1-.6-4.9-.8h-.1c-1 1.8-4.2 4.9-7.2 7-1.4 1-2.8 1.8-4 2.1 0 .3 1.8.2 4-.6v7.1h2.9v-8.3c.2-.1.5-.3.7-.4h12.3l.9.6v1.1h-13.9v1.2h5.7v3.9H215c.4-.4.6-1.3.2-1.9-.4-.3-1.1-1.2-3.8-1.2 0 .1-.1.1 0 .1 0 0 1.3 1 2.8 2.9h-3.4V33h13.9v.7h2.9V27c.2.1.4.1.6.2.9.1 1.2.3 1.4-.3.1-.9.3-1.3.8-2 .3-.3 1-.7 1.1-1.1v-.1c-3.8-.6-6.6.1-12.3-4"/></g><g><path class="st0" d="M226.1 43v-8.6L223 34l.2 9z"/></g><g><path class="st0" d="M260.8 27.1h11c.4 0 .1-.5.1-.5s-2.4-2.1-2.8-2.3c-.5-.2-.6 0-.6 0l-1.8 1.4H260v-7.4h-3.3v7.4H246V27h10.5c-.2 3.7-1.4 12.4-11.3 15.8.1.2.2.2.5.1 12.8-1.6 14.1-12.8 14.2-15.8 2.8 12.9 8.1 16 10.1 15.8.4 0-.4-2.3 2.7-2.9v-.2c-2.5-.6-9.3-4-11.9-12.7M168.5 23.8c1 1.4 2.7-1 1.9-2.4-.3-.3-1.8-2-5.8-2.2 0 .1-.1.1 0 .2 0-.1 1.8 1.2 3.9 4.4M172.7 30.2H186c-.2.4-.5.9-.7 1.4-.4-.3-.8-.5-1.1-.7 0 0-.4.7-.7 1.2h-11c.1-.5.2-1.1.2-1.9m6.5 7.2c-1.7-1-3.2-2.3-4.3-4.1h7.7c-.9 1.4-2.1 2.8-3.4 4.1m-9.5 3.5c-.1-2-.7-2.9-1.5-4.2.2-.7.5-2.1 1-3.8.3.7 1.6.9 2.5.3h2.5c.8 2.4 2 4.2 3.4 5.5-2 1.5-4.4 2.8-7.5 3.6v.2c3.5-.2 6.5-1.1 9-2.4 4 2.9 8.5 3 8.5 2.7.1-2 1.4-2.6 2.2-3 .1-.3-.1-.3-.5-.3-2.5.1-5.1-.2-7.5-1 2.3-1.6 3.9-3.4 5-4.8l.6-.7s-.5-.3-1.2-.8c1.7-1 3.9-2.5 3.9-2.5s-2.4-1.5-2.9-1.8c0 0-.3.4-.6 1.1h-14c-.1-.4-.1-.8-.2-1.2h-.2s-.8 1.9-2.7 4.3c1-3.5 2.3-7.8 2.6-9.4 0 0 .2-1.7-.5.4-1.1 4-2.7 7.5-4.8 11.3-.2.3-1 1.3-2.2 1.2l-1.1.1c-.1.1-.2.2-.1.3.6.2.3-.1.9.2 2.6.6 1.7 5 2 6.5-.1 1 3 .7 3.4-1.8"/><path class="st0" d="M166.8 29.6c1 1 2.5-1.1 1.6-2.5-.4-.5-1.4-1.9-5-2.2 0 .1-.1.1 0 .2-.1-.1 1.6 1.6 3.4 4.5M182.8 27.8h2.9V24h4.1c.4 0 .1-.4.1-.4s-2-1.7-2.3-1.8c-.4-.2-.5 0-.5 0l-1.2 1.1h-.2V19l-2.9-.4v1.2h-10.1V21h10.1v1.9h-9.5V24h9.5v1.9h-10.1v1.2h10.1v.7zM90.1 56.1h-.5v.1c.5.2.5 1.3.5 1.4V63h-5.6v-5.5s0-1.1.5-1.4V56h-3.1v.1c.5.2.5 1.4.5 1.4v13.2s0 1.1-.5 1.4v.1H85v-.1c-.5-.2-.5-1.4-.5-1.4v-6h5.6v6c0 .2-.1 1.1-.5 1.3v.1h3.1V72c-.5-.2-.5-1.4-.5-1.4V57.4s0-1.1.5-1.4v-.1h-2.6zM130.4 63.7c.5.2.5 1.4.5 1.4v5.1c-.4.3-1.4.7-2.9.7-1.9 0-3-.9-3-4.4V61c0-3.4 2.4-3.5 3-3.5 1.3-.2 3.3.4 4 1.4h.1v-2.6c-.9-.2-2.4-.7-4.1-.5-3.4 0-5.1 2.1-5.1 5.3v5.3c0 4.5 1.7 6.2 5.1 6.2 2.1 0 3.6-.5 4.9-1.2v-7.8l-2.5.1zM119.7 56.1h-2.3v.1c.4.2.5 1 .5 1.3v12.3l-6.3-13.6h-3.7v.1c.6.5.8 1 .8 1.8V71c0 .3-.1 1-.5 1.2v.1h2.8v-.1c-.4-.2-.5-.8-.5-1.2V58.2s2.5 5.7 5.2 11.3c1.5 3.1 4 3 4 3V57.3c0-.3.1-1 .5-1.2V56l-.5.1zM103.4 66.4c0 3.5-1 4.4-3 4.4-1.9 0-3-.9-3-4.4V61c0-3.4 2.3-3.5 3-3.5.6 0 3 .1 3 3.5v5.4zm-3-10.6c-3.4 0-5.1 2.1-5.1 5.3v5.3c0 4.5 1.7 6.2 5.1 6.2 3.4 0 5.1-1.8 5.1-6.2v-5.3c0-3.3-1.7-5.3-5.1-5.3M177.7 56.1c.4.2.5 1 .5 1.3v12.3l-6.3-13.6h-3.7v.1c.6.5.8 1 .8 1.8v13c0 .3-.1 1-.5 1.2v.1h2.8v-.1c-.4-.2-.5-.8-.5-1.2V58.2s2.5 5.7 5.2 11.3c1.5 3.1 4 3 4 3V57.3c0-.3.1-1 .5-1.2V56l-2.8.1zM153.3 70.6l-5-7.3 5.8-7.3h-3.2v.1c.8.4-.5 1.6-1.4 2.8l-3.3 4.2h-.1v-5.8c0-.3.1-1 .5-1.2V56h-3.1v.1c.5.2.5 1.1.5 1.3v13.3s0 1.1-.5 1.4v.1h3v-.1c-.5-.2-.5-1.4-.5-1.4v-7h.1l5.1 7.6c.4.7.8.8 2.2.8h1.6V72c-.7-.3-1.2-.7-1.7-1.4M190.7 63.7c.5.2.5 1.4.5 1.4v5.1c-.4.3-1.4.7-2.9.7-1.9 0-3-.9-3-4.4V61c0-3.4 2.4-3.5 3-3.5 1.3-.2 3.3.4 4 1.4h.1v-2.6c-.9-.2-2.4-.7-4.1-.5-3.4 0-5.1 2.1-5.1 5.3v5.3c0 4.5 1.7 6.2 5.1 6.2 2.1 0 3.6-.5 4.9-1.2v-7.8l-2.5.1zM160.7 70.9c-1.9 0-3-.9-3-4.4v-5.4c0-3.4 2.3-3.5 3-3.5.6 0 3 .1 3 3.5v5.4c0 3.5-1 4.4-3 4.4m0-15.1c-3.4 0-5.1 2.1-5.1 5.3v5.3c0 4.5 1.7 6.2 5.1 6.2 3.4 0 5.1-1.8 5.1-6.2v-5.3c0-3.3-1.7-5.3-5.1-5.3M258.9 56.1h-2.6v.1c.5.2.5 1.4.5 1.4v13.3s0 1.1-.5 1.4v.1h3.1v-.1c-.4-.2-.5-.9-.5-1.2V57.4c0-.3.1-1 .5-1.2v-.1h-.5zM283.2 56.1h-9c-.2 0-.4 0-.6-.2l-.6 2.7h.1c.5-.6 1-.7 1.6-.7h2.8v12.9s0 1.1-.5 1.4v.1h3.1v-.1c-.4-.2-.5-.9-.5-1.2V58h3.1c.4 0 .8.1.9.7h.1l.5-2.7h-.2c-.2.1-.5.1-.8.1M263.9 60c0-1.7 1.3-2.4 2.5-2.4.2 0 .6-.1.6 0 .9 0 2.8.4 3.5 1.3l-.1-2.5c-.8-.3-2.5-.5-3.4-.5v.3-.3h-.5c-2.7 0-4.7 1.5-4.7 4.4 0 4.8 7.5 4.4 7.5 8 0 1.8-1.3 2.5-2.8 2.6h-1c-1.3 0-2.7-.5-3.7-1.6l.6 2.8c.9.4 2.8.6 3.9.6 2.6.1 5.2-1.1 5.2-4.5-.1-5.2-7.6-4.7-7.6-8.2M253.8 56.1h-9.5c-.2 0-.4 0-.6-.2h-.1l-.6 2.6h.1c.5-.6 1.1-.7 1.9-.7h2.5v13c0 .3-.1 1.1-.5 1.3v.1h3.1v-.1c-.5-.2-.5-1.1-.5-1.3v-13h2.6c.6 0 1.2 0 1.4.8l.5-2.7h-.1c0 .2-.1.2-.2.2M209.7 70.5h-2.9v-5.8h2.2c2.1 0 3.7.4 3.7 3-.1 1.2-.8 2.8-3 2.8m-2.9-12.6h2.9c1.7 0 2.5 1.1 2.5 2.4 0 1.6-.8 2.5-2.4 2.6h-3v-5zm4.6 6v-.1c2.1-.5 2.8-1.8 2.8-3.8 0-.3-.1-1.3-.6-2.1-.6-.9-1.4-1.7-3.6-1.7h-5.8v.1c.4.2.5 1 .5 1.2V71c0 .3-.1 1.1-.5 1.2v.1h5.7c1.8 0 4.8-.4 4.8-4.5 0-2.3-1-3.7-3.3-3.9M236.7 63.4h-2.3v-5.5h2.8c.4 0 2.3.2 2.3 2.7 0 2.6-2 2.8-2.8 2.8m.5-7.3h-5.5v.1c.6.3.7 1.2.7 2.1V71c0 .3-.1 1.1-.5 1.2v.1h3.1v-.1c-.5-.2-.5-1.4-.5-1.4v-5.7h2.7c1.7 0 4.5-.8 4.5-4.4-.1-3.8-2.4-4.6-4.5-4.6M220.7 65.2l2.1-7.2 2.2 7.2h-4.3zm7.7 3.9-4.2-12.9h-3.3v.1c.5.2.5.7.3 1.2l-.1.5c-.1.2-.1.3-.2.5L217 70.6c-.3.7-.6 1.2-1.1 1.6v.1h3.5v-.1c-.5-.3-.6-.5-.5-.9l1.3-4.3h5.4l1.3 4.2c.1.5 0 .7-.5 1v.1h3.7v-.1c-.6-.4-.9-1-1.2-1.7l-.5-1.4zM324.7 56.1h-2.6v.1c.4.2.5.7.5 1.1v13.8c0 .4-.2.9-.5 1.1v.1h3.1v-.1c-.4-.2-.5-.8-.5-1.2V57.5c0-.3.1-1.1.5-1.3v-.1h-.5zM336.9 56.1c.2.2.3.3.3.5l-3.6 13.5-3.7-14h-2.6v.1c.4.4.6.9.8 1.4l.3 1.2c.1.2.1.4.2.6l2.7 9.2c.9 2.9 1.7 3.5 3.3 4l1.1-4 3.7-12.5h-2.5zM348.4 70.5H344v-5.6h5c.3 0 .6.1.7.5V63h-.1c-.2.1-.5.1-.7.1h-5v-5.2h5.4c.3 0 .6.2.9.6h.1V56h-.1c-.1.1-.2.1-.4.1h-8.3v.1c.4.2.5.8.5 1.2V71c0 .3-.1 1-.5 1.2v.1H350.2l.8-3h-.1c-.8.8-1.6 1.1-2.5 1.2M380.1 56.1h-2.6v.1c.4.2.5.7.5 1.1v13.8c0 .4-.2.9-.5 1.1v.1h3.1v-.1c-.4-.2-.5-.8-.5-1.2V57.4c0-.3.1-1 .5-1.2v-.1h-.5zM404.8 56.1h-1.2v.1c.7.5.6 1.2.4 1.8l-2.5 6-2.5-6.1-.5-1.1c-.2-.5-1-.6-1.5-.6h-1.5c.8.6.9 1 1.4 1.9l3.5 8V71c0 .3-.1 1-.5 1.2v.1h3.1v-.1c-.4-.2-.5-.8-.5-1.1v-4.9l3.5-7.9.9-2.1h-2.1zM393.4 56.1H384.1c-.2 0-.4-.1-.6-.2l-.6 2.7h.1c.5-.6 1.1-.7 1.9-.7h2.6v12.9s0 1.1-.5 1.4v.1h3.1v-.1c-.4-.2-.5-.8-.5-1.2V57.9h2.6c.6 0 1.2-.1 1.4.7h.1l.1-.7v-.2l.4-1.8h-.1c-.4.2-.5.2-.7.2M367.9 60c0-1.7 1.3-2.4 2.5-2.4.2 0 .6-.1.6 0 .9 0 2.8.4 3.5 1.3l-.1-2.5c-.8-.3-2.5-.5-3.4-.5v.3-.3h-.5c-2.7 0-4.7 1.5-4.7 4.4 0 4.8 7.5 4.4 7.5 8 0 1.8-1.3 2.5-2.8 2.6h-1c-1.3 0-2.7-.5-3.7-1.6l.6 2.8c1 .4 3.2.7 4.2.6 2.5-.1 4.9-1.3 4.9-4.5-.1-5.1-7.6-4.6-7.6-8.2M318.9 56.1h-2.3v.1c.4.2.5 1 .5 1.3v12.3l-6.3-13.6H307v.1c.6.5.8 1 .8 1.8V71c0 .3-.1 1-.5 1.2v.1h2.8v-.1c-.4-.2-.5-.8-.5-1.2V58.3s2.5 5.7 5.2 11.3c1.5 3.1 4 3 4 3V57.4c0-.3.1-1 .5-1.2v-.1h-.4zM304.1 56.1h-2.6v.1c.4.2.5.8.5 1.2v9.1c0 3.5-1.1 4.4-3 4.4s-3-.9-3-4.4v-9c0-.3.1-1 .5-1.2v-.1h-3.1v.1c.5.2.5 1.4.5 1.4v8.8c0 4.5 1.7 6.2 5.1 6.2 3.4 0 5.1-1.8 5.1-6.2v-8.8s0-1.1.5-1.4v-.1l-.5-.1zM355.7 63v-5.1h2.5c1.8 0 2.6 1.4 2.6 2.5 0 1.2-.8 2.6-2.7 2.6h-2.4zm7 7.4-3.1-5.6c2.2-.5 3.2-2.5 3.3-4.3 0-2-1.4-4.3-4.3-4.3H353v.1c.4.2.5 1 .5 1.3V71s0 1.1-.5 1.4v.1h3.1v-.1c-.5-.2-.5-1.4-.5-1.4v-6h1.6l3.4 6.5c.3.9 1.3.8 2.1.8h1.6v-.1c-.8-.6-1.1-.9-1.6-1.8M39.1 66.1s-11.7-4.4-26.2-2.2V23.3c11-3.3 20.6 1.1 20.6 1.1v-7.1s-13.1-5.7-28 1.7V72.7c16.2-5.8 32 .6 32 .6 22.4 8.7 34.7 4.2 34.7 4.2V67.1c-.1 0-10.3 6.4-33.1-1"/><path class="st0" d="M64.7 63.7V9.8S49.5 3 33.5 10v7.3c8.5-4.4 17.6-3.8 23.8-2.6v39.9c-5.4-.9-13-1.3-20.6 1.2V22.3c1.5-.5 3.3-1.2 5.1-1.7 1.1-.3 4.7-1.3 4.8 2.4 0 1.7.1 2.7 0 5 0 .6-.2 1.1-.9 1.4-.6.3-2.1.5-2.1.5v3.2s.1 0 1.7-.2c1-.1 1.3.5 1.3 1.5.1 2.3 0 6.8 0 6.8s.1.9-.5 1.5c-.5.6-2.5.7-2.5.7v3.1s2.4-.2 3.6-.6c.4-.1 1.7-.7 2.2-2 .6-1.5.5-7.9.3-10.8-.1-1.9-1.9-2.2-1.9-2.2s2-.9 2-2.9v-6.3c0-4.3-4-5.7-7.9-4.6-4 .9-8.3 2.8-8.3 2.8v44.6c13.6-8.2 31.1-.8 31.1-.8"/><path class="st0" d="M39.2 23.7V52.6s.9-.3 2.6-.6c2.6-.4 7.6-.9 13.1-.2V16.9s-1.6-.5-3.1-.4v31.9c-3.9-.2-7.1.1-9.3.4V22.7c-.2 0-1.9.2-3.3 1"/></g><g><path class="st0" d="M95.9 102.4s1.5 1.1 2.4 1.9c-.1.2-.2.3-.5.3H81.2l-.1-.5h7.4V92.2h-6l-.1-.5h11.2l1.3-1.7s1.5 1.1 2.4 1.9c-.1.2-.3.3-.5.3h-5.9V104h3.8l1.2-1.6zM118.8 89.5s1.4 1.1 2.3 1.8c-.1.2-.2.3-.5.3h-16l-.1-.5h7.9c-.1 0-.2-.1-.3-.2-.1-.8-.6-1.6-1-2.1l.1-.1c3.2.2 3.2 1.9 2.2 2.4h4l1.4-1.6zm-.7 3.9 2.1 1.6c-.1.1-.4.3-.8.4v8.3c0 1.4-.3 2.2-2.7 2.4 0-.7-.1-1.1-.4-1.5-.3-.3-.6-.6-1.5-.7v-.1c-.2.1-.4.1-.6.1h-.3v-.9h-2.5v.6c0 .2-.8.6-1.6.6h-.3v-5.8c-.5.2-1 .4-1.6.6v6.3c0 .2-.9.7-1.8.7h-.3V93.6l2.3.9h1.7c-.1-.1-.3-.1-.4-.3-.1-.9-.5-1.8-1-2.4l.2-.1c3.3.5 3.1 2.3 2.1 2.8h3.3c.3-.8.5-2 .7-2.8l2.9.7c-.1.2-.3.4-.7.4-.5.6-1.3 1.2-2.1 1.8h2.5l.8-1.2zm-10.2 5.2c1.9-1.1 2.1-2.2 2.2-3.5h-2.2v3.5zm3.6.6h2.3l.8-.9c-.9-.1-1-.4-1-1.3v-2H112c-.1 1.3-.6 2.5-2.5 3.4l2 .8zm2.5 3.3v-2.8h-2.5v2.8h2.5zm1.9 1c0 .1-.3.2-.7.3.5 0 1.4.1 1.7.1s.4-.1.4-.4v-5.4c-.3.1-.8.2-1.6.2h-1l1.8 1.3c-.1.1-.3.3-.6.3v3.6zm-.8-8.5v1.7c0 .2 0 .2.2.2h1.3c.1 0 .3 0 .4-.1h.4v-2h-2.3zM131 91.5c-1.1 1.4-2.4 2.5-3.8 3.2l-.2-.2c1.2-1.3 2.3-3.5 3-5.8l2.8.9c-.1.2-.3.4-.7.4-.2.3-.4.7-.6 1h2.2l.9-1.3s1.1.9 1.7 1.5c-.1.2-.2.3-.5.3H131zm11.2 2.7 1.9 1.8c-.1.1-.4.2-.7.2-.5.6-1.5 1.3-2.2 1.7l-.1-.1c-.1.1-.3.2-.5.3v2.2c0 .1-1.1.5-1.8.5h-.4v-.7h-5.3v1.6h6.3l1-1 2 1.5c-.1.1-.3.2-.6.3v3c0 .1-1.1.5-1.8.5h-.4v-1.2h-6.4v.6c0 .1-.6.6-1.8.6h-.4v-9.7l2.2.8h5.1l.9-1 1.9 1.4c.1-.6.2-1.3.3-1.9H130c.2 1.3-.1 2.2-.7 2.6-.6.4-1.4.3-1.7-.4-.2-.6.1-1.1.7-1.4.5-.4 1-1.5.8-2.5h.3c.2.4.4.8.5 1.2h11.4l.9-.9zm-11.1-2.3c4 .5 2.3 3.4.8 2.2-.1-.8-.6-1.6-1-2.1l.2-.1zm7.2 7.7v-1.8H133v1.8h5.3zm-5.4 2.6v2.1h6.4v-2.1h-6.4zm1.4-9.2c4.4 0 2.4 3.2.6 1.9 0-.6-.4-1.4-.7-1.8l.1-.1zm8.3-3.4s1.2.9 1.9 1.5c-.1.2-.2.3-.5.3h-6.1c-.7.6-1.5 1.1-2.4 1.5l-.2-.2c.7-1 1.4-2.5 1.8-4.1l2.7 1.1c-.1.2-.3.4-.8.3-.2.3-.5.6-.7.9h3.2l1.1-1.3zm-4.2 2.3c4.2.3 2.5 3.3.9 2.1-.1-.7-.6-1.5-1.1-2l.2-.1zM165.8 103.3s1.3 1.1 2.1 1.9c0 .2-.2.3-.5.3h-12.2l-.1-.5h5.6v-3.3h-3.8l-.1-.5h3.9v-2.9H159v.5c0 .2-.9.7-1.8.7h-.3v-3.2c-.1.1-.2.2-.4.2h-2.1v4.6c.8-.2 1.7-.5 2.5-.8l.1.2c-1.2.9-3 2.1-5.5 3.6-.1.2-.2.4-.4.5l-1-2.4c.5-.1 1.3-.3 2.2-.6v-5.2h-1.8l-.1-.5h2v-4.6h-1.9l-.1-.5h3.9l1.1-1.5s.9.7 1.6 1.4v-1.2l2.2.9h5.4l1-1.1 2 1.6c-.1.1-.4.3-.7.4v7.2c0 .2-1 .6-1.8.6h-.4v-.8h-1.8v2.9h1.4l1.1-1.5s1.2 1 1.9 1.8c0 .2-.2.3-.5.3h-3.9v3.3h1.9l1-1.8zm-10.6-8.9s1 1 1.5 1.6v-4.7h-2.5v4.6h.1l.9-1.5zm3.6-3.6V94h1.7v-3.2h-1.7zm1.8 6.9v-3.2h-1.7v3.2h1.7zm2.1-6.9V94h1.8v-3.2h-1.8zm1.8 6.9v-3.2h-1.8v3.2h1.8zM175.8 96.3c.2 1.1-.1 1.9-1 2.3-1.4.6-2.3-1.2-.8-2 .5-.3 1-1 1-2h.2c.2.4.4.8.5 1.2h.3l-.2-6.2 1.7.3c.6-.4 1.1-.9 1.5-1.2l1.5 1.1.1-.1c.6 0 1 .1 1.4.2.3-.4.5-.8.7-1.1l1.7.9c-.1.2-.3.2-.6.1l-.6.6c.9.7.5 1.7-.4 1.4-.1-.2-.4-.4-.6-.7-.6.4-1.3.8-1.9 1V92c-.1.1-.2.2-.4.2H178l.1 1.4h.4l.7-.9s.8.6 1.3 1.1c-.1.2-.2.3-.5.3h-1.9l.1 1.4h7.9l.1-1.4h-1.5l-.1-.5h1.7l.1-1.4h-1.5l-.2-.5h1.7l.1-1.4h-1.8l-.7-.3h1.8l.8-1 1.9 1.5c-.1.1-.3.2-.6.3l-.2 4.9.9-.9 1.9 1.8c-.1.1-.3.2-.7.2-.7.4-1.9 1-2.7 1.4l-.1-.2c.1-.4.4-1.1.5-1.7h-11.7zm12.2 3.2s1.3 1.1 2 1.8c-.1.2-.2.3-.5.3H183v1.9c0 1.5-.3 2.3-2.8 2.6-.1-.7-.2-1.2-.5-1.5-.3-.3-.7-.6-1.7-.7v-.3s2.1.1 2.5.1c.3 0 .4-.1.4-.3v-1.8h-7.1l-.1-.5h7.2v-1.5l1.6.1c.5-.4.9-.9 1.3-1.3h-6.6l-.2-.5h7l1.2-1.1 2 1.8c-.2.1-.4.2-.8.2-.8.3-1.9.7-2.9 1 0 .3-.2.4-.6.5v.8h3.9l1.2-1.6zm-9.2-8.4s.6.5 1.1.9c.5-.4 1-.8 1.4-1.3l-.9-.6h-.5c-.5.2-1.4.4-2.3.5V92h.5l.7-.9zm5.7 1.9c-.1.2-.3.2-.6.1-.2.3-.4.5-.7.8.9.8.4 1.9-.5 1.5-.1-.2-.3-.5-.6-.8-.7.4-1.5.8-2.3 1.1l-.1-.3c.6-.4 1.2-.9 1.7-1.4-.4-.3-.8-.6-1.1-.8l.2-.2c.6.1 1.1.1 1.6.3.3-.4.5-.7.7-1.1l1.7.8zM204 92.3c.6 3.3-3.3 2.3-1.6.2.5-.3.8-.8.9-1.6-.1.2-.4.2-.8.2-.6 1.2-1.7 3.1-2.6 4.3 1.8 1.3 2.6 3 2.6 4.5 0 1.8-.6 2.8-2.6 2.9 0-.6-.1-1.3-.2-1.5-.1-.2-.4-.3-.8-.4v4.6c0 .1-.6.6-1.6.6h-.3V89.3l2.2.8h1.1l1.1-1 2 1.8v-.2h.2c.2.4.3.7.4 1h3.4c-.2-.1-.4-.2-.6-.4 0-.9-.4-1.9-.8-2.5l.1-.1c3.5.6 3.1 2.6 2 3h3l1-1 1.8 1.7c-.1.1-.3.2-.7.2-.5.4-1.4 1-2 1.4.4.3.8.7 1.1 1 0 .2-.2.3-.5.3h-8.3l-.1-.5h5.9l1.1-1.4.6.5c.1-.4.3-1 .4-1.5H204zm-4.1 8.4c.2 0 .3 0 .4-.1.2-.2.4-.5.4-1.1 0-1.3-.3-2.7-1.2-4 .3-1.2.7-3.4 1-4.9H199v10h.9zm13.2 2.9c.5.2.6.5.6.9 0 .8-.7 1.2-2.7 1.2h-1.1c-1.5 0-1.8-.4-1.8-1.8v-5.8h-1.4c-.2 3.1-1 5.9-6 7.9l-.2-.2c3.6-2.3 3.8-4.9 3.9-7.6h-1.8l-.1-.5h8l1.1-1.5s1.3 1 2 1.7c-.1.2-.3.3-.5.3h-3V103.4c0 .2 0 .3.4.3H211.8c.1 0 .2 0 .4-.2.1-.3.4-1.1.7-2h.2v2.1z"/></g><g><path class="st0" d="M232.7 94.2h-.5c0-.4-.1-.8-.2-1.1-.1-.3-.3-.6-.6-.8-.2-.2-.5-.4-.8-.5-.3-.1-.6-.1-.9-.1-.3 0-.6.1-.9.1-.3.1-.6.3-.8.5-.2.2-.4.4-.6.8-.2.3-.2.6-.2 1 0 .5.2 1 .5 1.4.3.4.7.7 1.2 1.1.5.3 1 .6 1.6 1 .6.3 1.1.7 1.5 1 .5.4.9.8 1.2 1.3.3.5.5 1.1.5 1.8 0 .6-.1 1.1-.3 1.6-.2.5-.5.9-.9 1.2-.4.3-.9.6-1.5.8-.6.2-1.2.3-2 .3-.9 0-1.7-.1-2.3-.3-.6-.2-1.2-.5-1.7-.8l.1-2.7h.5c0 .7.2 1.2.4 1.6.2.4.5.7.8.9.3.2.7.4 1 .4.4.1.7.1 1.1.1.4 0 .8-.1 1.1-.2.3-.1.6-.3.8-.6.2-.2.4-.5.5-.8.1-.3.2-.6.2-.9 0-.6-.2-1.1-.5-1.5-.3-.4-.7-.8-1.2-1.1-.5-.3-1-.7-1.5-1-.6-.3-1.1-.7-1.6-1.1-.5-.4-.9-.8-1.2-1.3-.3-.5-.5-1.1-.5-1.7 0-.7.1-1.2.4-1.7.3-.5.6-.8 1.1-1.1.4-.3.9-.5 1.5-.6.6-.1 1.1-.2 1.7-.2.6 0 1.2.1 1.8.2.6.1 1.1.3 1.5.5l-.3 2.5zM235.2 99.6c0-1.1.2-2 .5-2.7.3-.7.8-1.3 1.3-1.8s1.2-.8 1.8-1c.7-.2 1.4-.3 2.1-.3.7 0 1.5.1 2.1.3.7.2 1.3.5 1.9.9v2.8h-.4c0-.7-.1-1.2-.3-1.6-.2-.4-.5-.8-.8-1-.3-.3-.7-.4-1.1-.6-.4-.1-.8-.2-1.2-.2-.6 0-1.2.1-1.7.4-.5.3-.9.6-1.3 1.1-.4.5-.6 1-.8 1.6-.2.6-.3 1.3-.3 2.1s.1 1.5.3 2.1c.2.6.5 1.2.8 1.6.4.5.8.8 1.3 1.1.5.3 1 .4 1.7.4.4 0 .8-.1 1.2-.2.4-.1.8-.3 1.1-.6.3-.3.6-.6.8-1 .2-.4.3-1 .3-1.6h.4v2.8c-.5.4-1.2.7-1.9.9-.7.2-1.4.3-2.1.3-.7 0-1.4-.1-2.1-.3-.7-.2-1.3-.5-1.8-1s-1-1-1.3-1.8c-.3-.8-.5-1.7-.5-2.7zM253.9 105.2v-.4c.4 0 .6 0 .8-.1.2 0 .4-.1.5-.2s.2-.3.2-.4v-4.4h-6v4.4c0 .2.1.3.2.4.1.1.3.2.5.2s.5.1.8.1v.4h-4.8v-.4c.4 0 .6 0 .8-.1.2 0 .4-.1.5-.2.1-.1.2-.3.2-.4V95.1c0-.2-.1-.3-.2-.4-.1-.1-.3-.2-.5-.3-.2-.1-.5-.1-.9-.1V94h4.8v.4c-.4 0-.7 0-.9.1-.2.1-.4.1-.5.3-.1.1-.2.3-.2.4v4h6v-4c0-.2-.1-.3-.2-.4-.1-.1-.2-.2-.5-.3-.2-.1-.5-.1-.9-.1V94h4.8v.4c-.4 0-.7 0-.9.1-.2.1-.4.1-.5.3-.1.1-.2.3-.2.4V104.2c0 .2.1.3.2.4.1.1.3.2.5.2s.5.1.8.1v.4h-4.4zM265.9 105.4c-.8 0-1.5-.1-2.2-.4-.7-.3-1.3-.6-1.9-1.1-.5-.5-1-1.1-1.3-1.8-.3-.7-.5-1.5-.5-2.4 0-.9.2-1.7.5-2.4s.7-1.3 1.3-1.8c.5-.5 1.2-.9 1.9-1.1.7-.3 1.4-.4 2.2-.4s1.5.1 2.2.4c.7.3 1.3.6 1.8 1.1.5.5 1 1.1 1.3 1.8.3.7.5 1.5.5 2.4 0 .9-.2 1.7-.5 2.4s-.7 1.3-1.3 1.8c-.5.5-1.1.9-1.8 1.1-.7.2-1.4.4-2.2.4zm0-.7c.6 0 1.1-.1 1.6-.4.5-.3.9-.6 1.2-1.1.4-.5.6-1 .8-1.6.2-.6.3-1.3.3-2s-.1-1.4-.3-2c-.2-.6-.5-1.2-.8-1.6-.4-.5-.8-.8-1.2-1.1-.5-.3-1-.4-1.6-.4-.6 0-1.1.1-1.6.4-.5.3-.9.6-1.3 1.1-.4.5-.6 1-.8 1.6-.2.6-.3 1.3-.3 2s.1 1.4.3 2c.2.6.5 1.2.8 1.6.4.5.8.8 1.3 1.1.5.3 1 .4 1.6.4zM279 105.4c-.8 0-1.5-.1-2.2-.4-.7-.3-1.3-.6-1.9-1.1-.5-.5-1-1.1-1.3-1.8-.3-.7-.5-1.5-.5-2.4 0-.9.2-1.7.5-2.4s.7-1.3 1.3-1.8c.5-.5 1.2-.9 1.9-1.1.7-.3 1.4-.4 2.2-.4.8 0 1.5.1 2.2.4.7.3 1.3.6 1.8 1.1.5.5 1 1.1 1.3 1.8.3.7.5 1.5.5 2.4 0 .9-.2 1.7-.5 2.4s-.7 1.3-1.3 1.8c-.5.5-1.1.9-1.8 1.1-.7.2-1.4.4-2.2.4zm0-.7c.6 0 1.1-.1 1.6-.4.5-.3.9-.6 1.2-1.1.4-.5.6-1 .8-1.6.2-.6.3-1.3.3-2s-.1-1.4-.3-2c-.2-.6-.5-1.2-.8-1.6-.4-.5-.8-.8-1.2-1.1-.5-.3-1-.4-1.6-.4-.6 0-1.1.1-1.6.4-.5.3-.9.6-1.3 1.1-.4.5-.6 1-.8 1.6-.2.6-.3 1.3-.3 2s.1 1.4.3 2c.2.6.5 1.2.8 1.6s.8.8 1.3 1.1c.5.3 1.1.4 1.6.4zM291.4 94.4c-.4 0-.8 0-1 .1-.3 0-.5.1-.6.2-.1.1-.2.3-.3.4 0 .2-.1.4-.1.7v7.5c0 .4.1.8.3 1 .2.2.5.3 1.1.3h2c.3 0 .6 0 .8-.1l.6-.3c.2-.1.3-.4.4-.6.1-.3.2-.6.3-1h.4l-.2 2.6h-8.8v-.4c.4 0 .6 0 .9-.1.2 0 .4-.1.5-.2s.2-.3.2-.4V95.1c0-.2-.1-.3-.2-.4-.1-.1-.3-.2-.5-.2-.2-.1-.5-.1-.9-.1V94h5.2v.4zM307.1 105.4c-.8 0-1.5-.1-2.2-.4-.7-.3-1.3-.6-1.9-1.1-.5-.5-1-1.1-1.3-1.8-.3-.7-.5-1.5-.5-2.4 0-.9.2-1.7.5-2.4s.7-1.3 1.3-1.8c.5-.5 1.2-.9 1.9-1.1.7-.3 1.4-.4 2.2-.4s1.5.1 2.2.4c.7.3 1.3.6 1.8 1.1.5.5 1 1.1 1.3 1.8.3.7.5 1.5.5 2.4 0 .9-.2 1.7-.5 2.4s-.7 1.3-1.3 1.8c-.5.5-1.1.9-1.8 1.1-.7.2-1.5.4-2.2.4zm0-.7c.6 0 1.1-.1 1.6-.4.5-.3.9-.6 1.2-1.1.4-.5.6-1 .8-1.6.2-.6.3-1.3.3-2s-.1-1.4-.3-2c-.2-.6-.5-1.2-.8-1.6-.4-.5-.8-.8-1.2-1.1-.5-.3-1-.4-1.6-.4-.6 0-1.1.1-1.6.4-.5.3-.9.6-1.3 1.1-.4.5-.6 1-.8 1.6-.2.6-.3 1.3-.3 2s.1 1.4.3 2c.2.6.5 1.2.8 1.6s.8.8 1.3 1.1c.5.3 1 .4 1.6.4zM313.6 105.2v-.4c.4 0 .6 0 .9-.1.2 0 .4-.1.5-.2s.2-.3.2-.4V95.1c0-.2-.1-.3-.2-.4-.1-.1-.3-.2-.5-.2-.2-.1-.5-.1-.9-.1V94h8.3l.1 2.4h-.4c-.1-.4-.1-.8-.2-1-.1-.2-.2-.4-.4-.5-.2-.1-.4-.2-.6-.2h-3.6V99h2.6c.3 0 .5 0 .6-.1.2 0 .3-.1.4-.2.1-.1.1-.3.2-.4s0-.4 0-.7h.4v3.5h-.4v-.7c0-.2-.1-.3-.2-.5s-.2-.2-.4-.2-.4-.1-.6-.1h-2.6v3.7c0 .3 0 .5.1.7 0 .2.1.3.2.4.1.1.3.2.6.2s.6.1 1 .1v.4h-5.1zM332.9 91.2c.6 0 1.2.1 1.7.2s1 .4 1.4.6c.4.3.7.6.9 1s.3.8.3 1.3c0 .3-.1.7-.2 1.1-.1.4-.3.7-.6 1-.3.3-.6.6-.9.8-.4.2-.8.4-1.3.6.8 0 1.5.1 2.1.3s1 .5 1.4.8c.3.3.6.7.8 1.1.2.4.2.8.2 1.2 0 .6-.1 1.1-.3 1.6-.2.4-.4.8-.8 1.1-.3.3-.7.6-1.1.7-.4.2-.8.3-1.3.4-.4.1-.9.2-1.3.2s-.8.1-1.2.1H327v-.5c.4 0 .8 0 1-.1s.5-.1.6-.3c.1-.1.2-.3.3-.6 0-.2.1-.5.1-.9v-9.4c0-.4 0-.7-.1-.9 0-.2-.1-.4-.3-.6-.1-.1-.3-.2-.6-.3-.3-.1-.6-.1-1-.1v-.5h5.9zm2.1 3.3c0-.5-.1-.9-.2-1.3-.1-.3-.3-.6-.5-.8-.2-.2-.5-.3-.8-.4-.3-.1-.5-.1-.8-.1h-1.6v5.6h1.3c.2 0 .5 0 .8-.1.3-.1.6-.3.9-.5.3-.2.5-.5.7-.9.1-.4.2-.9.2-1.5zm-3.9 8.3c0 .6.1 1.1.4 1.3.2.2.6.3 1.2.3.3 0 .6 0 1-.1.4 0 .8-.2 1.2-.4s.7-.5 1-.9c.3-.4.4-1 .4-1.7 0-.4-.1-.8-.2-1.2-.1-.4-.3-.7-.6-1-.3-.3-.7-.5-1.2-.7-.5-.2-1.1-.3-1.8-.3h-1.3v4.7zM350.1 101c0 .6-.1 1.1-.2 1.6s-.3 1-.7 1.4c-.3.4-.8.7-1.3 1-.6.2-1.3.4-2.1.4-.9 0-1.6-.1-2.1-.4-.6-.2-1-.6-1.4-1-.3-.4-.6-.9-.7-1.4-.1-.5-.2-1.1-.2-1.7v-5.8c0-.2-.1-.3-.2-.4s-.3-.2-.5-.3c-.2-.1-.5-.1-.9-.1V94h4.8v.4c-.4 0-.7 0-.9.1-.2.1-.4.1-.4.3-.1.1-.2.3-.2.4v5.3c0 .8.1 1.4.2 2 .1.5.4 1 .6 1.3.3.3.6.6 1 .7.4.2.8.2 1.3.2s.9-.1 1.3-.2.7-.3 1-.6c.3-.3.5-.7.7-1.1.2-.5.2-1 .2-1.6v-6c0-.2-.1-.3-.2-.4-.1-.1-.3-.2-.5-.3-.2-.1-.5-.1-.9-.1V94h3.9v.4c-.3 0-.6 0-.8.1-.2.1-.3.1-.4.2-.1.1-.2.3-.2.4v5.9zM359 96.4h-.4c0-.3 0-.6-.2-.9-.1-.3-.3-.5-.5-.6-.2-.2-.4-.3-.6-.4-.2-.1-.5-.1-.7-.1s-.5 0-.8.1c-.3.1-.5.2-.7.4-.2.2-.4.4-.5.6-.1.2-.2.5-.2.8 0 .4.1.8.4 1.1s.6.6 1 .8c.4.3.8.5 1.2.8.4.3.9.5 1.2.8.4.3.7.7 1 1s.4.9.4 1.4c0 .5-.1.9-.3 1.3-.2.4-.4.7-.7 1-.3.3-.7.5-1.2.6-.5.1-1 .2-1.6.2-.7 0-1.4-.1-1.9-.3-.5-.2-.9-.4-1.3-.6l.1-2.2h.4c0 .5.1 1 .3 1.3.2.3.4.6.7.8s.5.3.8.3c.3.1.6.1.9.1.3 0 .6-.1.9-.2.3-.1.5-.3.6-.4.2-.2.3-.4.4-.6s.1-.5.1-.7c0-.5-.1-.9-.4-1.2-.3-.3-.6-.6-1-.9-.4-.3-.8-.5-1.2-.8-.4-.3-.9-.5-1.2-.8-.4-.3-.7-.6-1-1-.3-.4-.4-.8-.4-1.4 0-.5.1-1 .3-1.4s.5-.7.9-.9c.4-.2.8-.4 1.2-.5.5-.1.9-.2 1.4-.2.5 0 .9 0 1.4.1.5.1.9.2 1.2.4v2.2zM361.1 105.2v-.4c.4 0 .6 0 .8-.1.2 0 .4-.1.5-.2.1-.1.2-.3.2-.4V95.1c0-.2-.1-.3-.2-.4-.1-.1-.3-.2-.5-.3-.2-.1-.5-.1-.9-.1V94h4.8v.4c-.4 0-.7 0-.9.1-.2.1-.4.1-.5.3-.1.1-.2.3-.2.4V104.2c0 .2.1.3.2.4.1.1.3.2.5.2s.5.1.8.1v.4h-4.6zM377.7 95.8c0-.3 0-.5-.1-.7 0-.2-.1-.3-.2-.4-.1-.1-.3-.2-.5-.2s-.5-.1-.8-.1V94h3.7v.4c-.3 0-.6 0-.8.1-.2.1-.3.1-.4.2-.1.1-.2.3-.2.4 0 .2-.1.4-.1.7v9.5h-.4l-8.3-9.3v7.4c0 .3 0 .5.1.7 0 .2.1.3.2.4.1.1.3.2.5.2s.5.1.9.1v.4h-4v-.4c.3 0 .6 0 .8-.1.2 0 .4-.1.5-.2.1-.1.2-.3.2-.4 0-.2.1-.4.1-.7v-7.6c0-.3 0-.5-.1-.7 0-.2-.1-.3-.3-.4-.1-.1-.3-.2-.5-.2-.2-.1-.5-.1-.9-.1V94h3.1l7.3 8.4v-6.6zM381 104.8c.4 0 .6 0 .9-.1.2 0 .4-.1.5-.2s.2-.3.2-.4V95.1c0-.2-.1-.3-.2-.4-.1-.1-.3-.2-.5-.2-.2-.1-.5-.1-.9-.1V94h8.3l.1 2.4h-.4c-.1-.4-.1-.8-.2-1-.1-.2-.2-.4-.4-.5s-.4-.2-.6-.2h-3.6V99h2.3c.3 0 .5 0 .6-.1.2 0 .3-.1.4-.2.1-.1.1-.3.2-.4v-.7h.4v3.5h-.4v-.7c0-.2-.1-.3-.2-.5s-.2-.2-.4-.2-.4-.1-.6-.1h-2.3v3.6c0 .4.1.8.3 1 .2.2.5.3 1.1.3h2c.3 0 .6 0 .8-.1l.6-.3c.2-.1.3-.4.4-.6.1-.3.2-.6.3-1h.4l-.2 2.6H381v-.3zM397.7 96.4h-.4c0-.3 0-.6-.2-.9-.1-.3-.3-.5-.5-.6-.2-.2-.4-.3-.6-.4-.2-.1-.5-.1-.7-.1-.3 0-.5 0-.8.1-.3.1-.5.2-.7.4-.2.2-.4.4-.5.6-.1.2-.2.5-.2.8 0 .4.1.8.4 1.1s.6.6 1 .8c.4.3.8.5 1.2.8.4.3.9.5 1.2.8.4.3.7.7 1 1s.4.9.4 1.4c0 .5-.1.9-.3 1.3-.2.4-.4.7-.7 1-.3.3-.7.5-1.2.6-.5.1-1 .2-1.6.2-.7 0-1.4-.1-1.9-.3-.5-.2-.9-.4-1.3-.6l.1-2.2h.4c0 .5.1 1 .3 1.3.2.3.4.6.7.8s.5.3.8.3c.3.1.6.1.9.1.3 0 .6-.1.9-.2.3-.1.5-.3.6-.4.2-.2.3-.4.4-.6s.1-.5.1-.7c0-.5-.1-.9-.4-1.2-.3-.3-.6-.6-1-.9-.4-.3-.8-.5-1.2-.8-.4-.3-.9-.5-1.2-.8-.4-.3-.7-.6-1-1-.3-.4-.4-.8-.4-1.4 0-.5.1-1 .3-1.4s.5-.7.9-.9c.4-.2.8-.4 1.2-.5.5-.1.9-.2 1.4-.2.5 0 .9 0 1.4.1.5.1.9.2 1.2.4v2.2zM406.2 96.4h-.4c0-.3 0-.6-.2-.9-.1-.3-.3-.5-.5-.6-.2-.2-.4-.3-.6-.4-.2-.1-.5-.1-.7-.1-.3 0-.5 0-.8.1-.3.1-.5.2-.7.4-.2.2-.4.4-.5.6-.1.2-.2.5-.2.8 0 .4.1.8.4 1.1s.6.6 1 .8c.4.3.8.5 1.2.8.4.3.9.5 1.2.8.4.3.7.7 1 1s.4.9.4 1.4c0 .5-.1.9-.3 1.3-.2.4-.4.7-.7 1-.3.3-.7.5-1.2.6-.5.1-1 .2-1.6.2-.7 0-1.4-.1-1.9-.3-.5-.2-.9-.4-1.3-.6l.1-2.2h.4c0 .5.1 1 .3 1.3.2.3.4.6.7.8s.5.3.8.3c.3.1.6.1.9.1.3 0 .6-.1.9-.2.3-.1.5-.3.6-.4.2-.2.3-.4.4-.6s.1-.5.1-.7c0-.5-.1-.9-.4-1.2-.3-.3-.6-.6-1-.9-.4-.3-.8-.5-1.2-.8-.4-.3-.9-.5-1.2-.8-.4-.3-.7-.6-1-1-.3-.4-.4-.8-.4-1.4 0-.5.1-1 .3-1.4s.5-.7.9-.9c.4-.2.8-.4 1.2-.5.5-.1.9-.2 1.4-.2.5 0 .9 0 1.4.1.5.1.9.2 1.2.4v2.2z"/></g></svg>