<svg xmlns="http://www.w3.org/2000/svg" width="195.97" height="35.6" viewBox="0 0 555.50551 100.91339">
  <defs>
    <style>
      .a {
        fill: #00487d;
      }
    </style>
  </defs>
  <g>
    <path class="a" d="M143.4225,34.4598c-7.34656-1.48053-12.83111-4.62-14.64415-6.09707h13.99313c.609,0,.10147-.66149.10147-.66149s-3.35653-2.912-3.857-3.143c-.658-.30452-.861,0-.861,0l-2.43255,2.09994v.049h-9.03355v-4.69c6.09354-.48654,11.13359-1.0535,11.86862-1.2355-3.54206-2.27853-2.63207-2.08253-5.68055-3.95506-2.94354,1.176-16.63914,4.82654-24.47576,5.565l.028.37107c3.836.11546,9.016-.10158,14.00012-.43056v4.375H106.09117v1.65549h11.45911c-2.71955,4.10555-8.20757,9.1456-11.98414,10.37063l.02451.36755a27.5685,27.5685,0,0,0,7.37108-2.51309V50.92045h4.03553v-1.267h15.08865v1.267h4.039V37.2774c2.1315,1.099,3.81155,1.53992,4.06,1.21446.32551-1.37553.2485-3.04148,2.632-3.647.39548-.105.52151.10147.60552-.38506m-28.90676,1.295a33.961,33.961,0,0,0,7.91357-6.223V36.8399h-5.43205V35.75479ZM132.08591,47.9735H116.99726V44.12344h15.08865Zm0-5.56515H116.99726V38.54783h15.08865Zm0-6.65356V36.8399h-5.39707V28.36273h.063a20.28936,20.28936,0,0,0,7.23457,7.67212Z"/>
    <path class="a" d="M404.91013,45.87474c-.34309,1.28453-2.22961.69652-3.20961.93108a14.228,14.228,0,0,0-2.597-.08053c-.12241.12251-.16449.2415.04208.32556,1.50147.406,3.164.48642,4.34,1.624.52851.567.36754,1.54.48653,2.22949a9.36631,9.36631,0,0,0,4.018-.609c.56-.44092,1.015-.53193,1.12356-2.051h.00695v-5.684l14.96613.00353v-.00353h1.267c.609.00353.10158-.658.10158-.658s-3.36011-2.91556-3.85358-3.14659c-.658-.301-.86454,0-.86454,0l-2.43244,2.10356v.049h-9.18416v-1.449c2.79656-.77353,8.1656-2.57952,8.1656-2.57952a40.71424,40.71424,0,0,1-3.906-2.989,12.99955,12.99955,0,0,0-1.56448,1.48747H395.852v1.708h14.27666c-.61257.61951-1.29157,1.30557-2.01608,2.02655h-3.20245v1.79552H389.6149v1.652h15.29523Z"/>
    <path class="a" d="M411.75381,25.56478s-2.807-1.18295-3.13953-1.337c-.44456-.203-.29406.03856-.3605.17848a7.79031,7.79031,0,0,1-1.07805,1.617,8.99184,8.99184,0,0,0-2.97858-.78752c0,.08758-.091.12251-.03151.17848,0,0,.80152.73156,1.81656,1.85512a29.53526,29.53526,0,0,1-4.21749,3.22c-.92051.86454,2.457-.37449,5.397-1.834a21.08053,21.08053,0,0,1,1.512,2.142c.966.931,2.429-1.13755,1.56448-2.51308a9.561,9.561,0,0,0-.854-.847,8.31676,8.31676,0,0,0,1.25643-.903Z"/>
    <path class="a" d="M392.42065,36.347a6.31365,6.31365,0,0,0,.32194-3.1185h27.89172c-.65444,1.28453-1.477,2.8771-2.38694,4.5641-.4515.8435,7.55655-4.81607,7.55655-4.81607s-2.94-2.233-3.59808-2.688a6.95051,6.95051,0,0,0-.69994,1.239h-.28359V17.56239l-4.03548-.588v1.77095h-5.20454v1.24607h5.20454v3.16752h-5.20454v1.246h5.20454v3.164h-5.20454V28.815h5.20454v2.71251H396.7081V28.85343h2.06159v.049h4.11954c.35345,0,.056-.38847.056-.38847s-1.974-1.71509-2.26453-1.84807c-.38847-.182-.50746,0-.50746,0l-1.18658.938H396.7081v-3.199h6.18113c.35345,0,.056-.38848.056-.38848s-1.974-1.71156-2.26453-1.84806c-.38847-.17849-.50746,0-.50746,0l-1.2496.99057H396.7081V20.40787a33.46473,33.46473,0,0,0,5.59655-1.001l1.106.14355c.39553.175.38848-.58448.38848-.58448s-3.21655-1.75706-3.46852-2.04759c-.343-.385-.6475.28359-.6475.28359l-2.97505,2.35542V17.3524h-4.03548V31.52748h-.31851a16.15188,16.15188,0,0,0-.9345-2.29957c-.09453.063-.196-.01741-.22057.08759a28.9127,28.9127,0,0,1-2.66348,6.972c-.39552,1.71508,2.9225,1.96011,3.88509.05949"/>
    <path class="a" d="M402.70861,23.35344c-.7981.88558,1.715-.21694,4.137-1.624.3465.5565.68958,1.1445,1.00457,1.778.882,1.01857,2.52-.92051,1.778-2.36248a8.02257,8.02257,0,0,0-.644-.77,10.07562,10.07562,0,0,0,1.30193-1.043l1.134-.896s-2.57247-1.155-2.9085-1.31251c-.441-.20647-.287.04208-.357.182a10.88264,10.88264,0,0,1-1.06759,1.673,9.4167,9.4167,0,0,0-2.828-.93792c-.00352.084-.09805.11194-.0455.17143a23.72271,23.72271,0,0,1,1.715,2.142,30.61681,30.61681,0,0,1-3.22,2.99951"/>
    <path class="a" d="M196.62648,49.2232c1.67647-3.451-1.77453,0-.78753-8.624-.161-.322-.32551-.17154-.406-.049a33.72858,33.72858,0,0,1-3.14307,6.15656c-.52845-.08043-6.055.07349-8.16554,0-1.421-.05244-3.479.252-3.27952-1.316V42.62914h6.93357v1.267h4.004v-6.937a10.36673,10.36673,0,0,0,4.21055,2.57611c1.21451.406,1.0325-.05256,1.316-.455.36749-1.582.539-2.67757,2.324-3.16752-.0385-.077.042-.2415-.0385-.28359-4.263-.92392-6.72005-1.204-9.65307-4.51143h9.22608c.609,0,.10148-.6616.10148-.6616s-3.35653-2.912-3.85353-3.143c-.658-.301-.86449,0-.86449,0L192.11841,29.413h-.896V23.764h6.93c.609,0,.10152-.658.10152-.658s-3.35306-2.91555-3.85353-3.14306c-.658-.30805-.861,0-.861,0l-2.317,1.995V17.779l-4.03553-.55649v4.837h-5.376v-4.837h-4.004v4.837h-5.23258a2.17365,2.17365,0,0,0-.294-.98353c-.3535-.406-2.485-2.78951-8.01158-3.094,0,.119-.12951.168-.049.24855a26.27806,26.27806,0,0,1,5.474,6.14257c.791,1.141,1.918.50394,2.506-.609h1.4315a70.63251,70.63251,0,0,1-6.517,15.23914,3.73427,3.73427,0,0,1-3.038,1.69747l-1.45954.16449c-.119.08053-.32551.24855-.161.44808.89247.28348.448-.154,1.26.252,3.60151.75954,2.38352,6.874,2.78952,9.02661-.10153,1.31593,4.25952.812,4.71454-2.58657-.10153-2.74049-1.01151-4.0075-2.079-5.72953.0455-.20647.098-.44455.16454-.71756.08049-.01047.16449-.028.266-.04551a15.97783,15.97783,0,0,0,7.27307-3.67851v9.2051h.00352l.00348.25549a3.55717,3.55717,0,0,0,3.388,2.99257c4.109.049,8.5576.05244,12.00514-.007,2.632-.0455,3.801-.24492,4.382-1.057M181.81084,23.764h5.376v5.649h-5.376Zm-.966,9.73008a28.39382,28.39382,0,0,0,1.58553-2.37647h5.4775a26.69552,26.69552,0,0,0,1.61351,2.982l-1.7395-.24151v1.407h-6.937Zm0,3.47557h6.937l-.00347,3.95494h-6.93357Zm-11.27362,3.98645c-.035.01752-.084.04209-.12951.06655.59505-2.30651,1.75-6.23,2.814-9.905h4.90355c-.87148,2.41492-3.16053,7.52152-7.58806,9.83849M177.80682,29.413h-5.06457c.651-2.27148,1.218-4.31544,1.526-5.649h3.53854Z"/>
    <path class="a" d="M167.21466,32.435c1.3195,1.31957,3.395-1.519,2.233-3.44747-.609-.71052-1.9285-2.58657-6.94751-3.094,0,.119-.12951.16449-.049.245a30.67853,30.67853,0,0,1,4.76357,6.29648"/>
    <polygon class="a" points="286.525 41.385 286.525 43.81 300.988 43.81 300.988 45.543 286.525 45.543 286.525 47.968 300.988 47.968 300.988 49.648 286.525 49.648 286.525 50.915 282.476 50.915 282.476 38.851 286.525 38.851 286.525 39.677 300.988 39.677 300.988 41.385 286.525 41.385"/>
    <path class="a" d="M295.73685,18.68787c.85749-.71393,1.337-1.21093,1.134-1.28794-1.953-.41305-4.21054-.76307-6.74456-1.16554l-.175.196c-1.43155,2.44654-5.733,6.74809-9.88763,9.69163h-.01746v.01047a19.44116,19.44116,0,0,1-5.47409,2.92249c.00353.4515,2.436.21352,5.47409-.79094v9.72655h4.039L284.08174,26.57c.3465-.182.686-.364,1.022-.56354h11.79861V26.024h5.10655c.40252.28348.805.5565,1.211.81552v1.48405H284.1062v1.701h7.84361v5.348h-2.04754a2.02463,2.02463,0,0,0,.24151-2.55495c-.49-.46207-1.575-1.70452-5.20807-1.69052.01052.08748-.077.12945-.014.17848a22.23385,22.23385,0,0,1,3.81855,4.067H284.1062v1.70462l19.11372-.00352v.917h4.03553V28.852a8.22591,8.22591,0,0,0,.82951.22751c1.27048.105,1.64849.45149,1.89351-.40258a4.50265,4.50265,0,0,1,1.1515-2.793c.36049-.40247,1.39652-1.03245,1.519-1.519L312.6,24.162c-5.159-.80857-8.9951.175-16.86312-5.47414m1.11651,5.72611.00347.119h-9.3031c1.96354-1.24949,5.18009-3.486,7.2836-5.12753a28.09427,28.09427,0,0,0,3.528,3.696Zm6.36656,10.95853h-6.6431c1.62051-.749,5.82059-3.26547,5.82059-3.26547s-3.11156-1.211-3.64006-1.57506c-.07349-.05244-.952,1.72908-2.7265,4.84053h-.67554v-5.348h7.86461Z"/>
    <polygon class="a" points="305.301 50.922 305.301 39.053 300.985 38.497 301.262 50.922 305.301 50.922"/>
    <path class="a" d="M353.05225,28.95415h15.08854c.61257,0,.105-.658.105-.658s-3.353-2.91556-3.85347-3.14307c-.66149-.30441-.861,0-.861,0l-2.43607,1.92508.00352.049h-9.24354V16.98763h-4.53953v10.1396H332.73807v1.82692H347.2737c-.30805,5.13458-1.90757,17.05218-15.64867,21.75278.119.2555.33951.21.679.20647,17.64018-2.26453,19.39362-17.61914,19.54412-21.77019,3.79761,17.75212,11.18262,22.01864,13.95814,21.77019.50747-.049-.609-3.19551,3.724-4.00749l-.049-.30453c-3.444-1.001-12.72606-5.72258-16.429-17.64723"/>
    <path class="a" d="M225.86153,24.32159c1.36848,1.97752,3.75553-1.36848,2.58652-3.297-.35355-.406-2.48505-2.78952-8.01158-3.094,0,.119-.12951.16449-.0525.245a26.21506,26.21506,0,0,1,5.47756,6.146"/>
    <path class="a" d="M227.43482,47.95833c-.10152-2.737-1.01151-4.004-2.079-5.733.217-1.015.7455-2.94,1.393-5.20455.392.90652,2.2155,1.281,3.38451.441h3.444a19.27787,19.27787,0,0,0,4.71107,7.63357,27.73351,27.73351,0,0,1-10.27958,4.93858c0,.08043-.056.26244.035.25891a29.56165,29.56165,0,0,0,12.41113-3.35295c5.4775,3.99351,11.68657,4.16847,11.68657,3.65747.11551-2.8,1.9145-3.55247,3.09056-4.158.20647-.357-.16454-.406-.672-.406a30.79406,30.79406,0,0,1-10.37763-1.386,34.82914,34.82914,0,0,0,6.94057-6.68155l.763-.96259s-.735-.469-1.65549-1.05c2.296-1.38952,5.35852-3.41255,5.35852-3.41255s-3.346-2.079-4.0075-2.53754a9.28319,9.28319,0,0,0-.86454,1.54354H231.41086c-.08053-.511-.189-1.057-.343-1.659-.10153.03845-.18548-.05949-.231.035a28.59116,28.59116,0,0,1-3.73806,5.8765c1.41051-4.879,3.16752-10.79757,3.55606-12.89761,0,0,.231-2.28205-.71752.50747a70.30678,70.30678,0,0,1-6.60806,15.54367,3.74128,3.74128,0,0,1-3.038,1.701l-1.45954.16449c-.12251.08053-.32551.245-.16449.44808.89252.28348.448-.15755,1.26348.252,3.598.75954,2.38,6.87754,2.78957,9.02661-.10152,1.31945,4.25952.812,4.71454-2.58657m13.1671-4.86157a15.69407,15.69407,0,0,1-5.87656-5.635h10.59809a37.95826,37.95826,0,0,1-4.72153,5.635m-9.04755-9.8981h18.30514c-.301.57754-.63,1.21809-.99052,1.904-.57749-.357-1.127-.693-1.55049-.94144a17.6641,17.6641,0,0,0-.973,1.645H231.17636a7.19322,7.19322,0,0,0,.378-2.60762"/>
    <path class="a" d="M223.429,32.387c1.3195,1.31956,3.3985-1.519,2.233-3.44748-.609-.71052-1.92849-2.58657-6.94751-3.09756,0,.12251-.12951.168-.05255.24855A30.6072,30.6072,0,0,1,223.429,32.387"/>
    <path class="a" d="M245.58594,29.851h4.039v-5.173h.994V24.657h4.739c.49,0,.08049-.532.08049-.532s-2.7195-2.36248-3.122-2.548c-.5355-.245-.69647,0-.69647,0l-1.66606,1.449h-.329V17.72688l-4.039-.56v1.596H231.59629v1.65207h13.98965v2.611l-13.12863-.00352v1.65548h13.12863v2.60762H231.59629v1.652h13.98965Z"/>
    <path class="a" d="M117.61992,68.96343h-.73155v.091c.735.3151.73155,1.841.73155,1.8831v7.57055h-7.78411V70.95494s-.02446-1.582.7245-1.90051v-.091h-4.31549v.091c.7455.31851.735,1.90051.735,1.90051l.01752,18.2597s.01746,1.57153-.73151,1.89005v.091h4.2945v-.091c-.749-.31852-.7245-1.91451-.7245-1.91451V80.96861h7.78411v8.31257c-.007.30794-.08053,1.547-.73155,1.82351v.091h4.29455v-.091c-.749-.31852-.7315-1.89005-.7315-1.89005h-.00348l.00348-18.26664s-.01752-1.57506.7315-1.89357v-.091h-3.563Z"/>
    <path class="a" d="M173.26836,79.34688c.7455.31851.7315,1.89.7315,1.89l-.00705.014-.007,7.08412a7.00216,7.00216,0,0,1-3.976.98695c-2.681,0-4.0985-1.2355-4.0985-6.10049V75.69987c0-4.65147,3.241-4.81606,4.137-4.81606,1.82356-.22741,4.60255.504,5.55105,1.92508l.07-.00353v-3.542a16.931,16.931,0,0,0-5.65956-.74556c-4.71454,0-6.993,2.835-6.993,7.2766v7.30106c0,6.167,2.27847,8.59958,6.993,8.59958a13.69815,13.69815,0,0,0,6.81111-1.66606V79.24893l-3.55253.00353Z"/>
    <path class="a" d="M158.56333,68.89165h-2.52355v.00705h-.728v.09453c.61246.259.71046,1.35449.728,1.743V87.65187l-8.71157-18.76022h-4.004v.00705h-1.162v.09453a3.04749,3.04749,0,0,1,1.162,2.429V89.44033c-.03151.46208-.16449,1.38953-.721,1.62409V91.159h3.96558v-.09453c-.54955-.23456-.686-1.148-.721-1.61351V71.84918h.063s3.5035,7.87165,7.16108,15.63115c2.0195,4.27709,5.49155,4.10555,5.49155,4.10555V70.6172c.03145-.462.168-1.38952.721-1.624V68.8987h-.721Z"/>
    <path class="a" d="M131.92665,68.49441c-4.71807,0-6.99659,2.835-6.99659,7.27308v7.30458c0,6.16351,2.27852,8.59958,6.99659,8.59958,4.71454,0,6.99654-2.43607,6.99654-8.59958V75.76749c0-4.43806-2.282-7.27308-6.99654-7.27308m4.09856,14.70007c0,4.87214-1.41757,6.10059-4.09856,6.10059s-4.09855-1.22845-4.09855-6.10059V75.673c0-4.65158,3.206-4.8055,4.09855-4.8055s4.09856.15392,4.09856,4.8055Z"/>
    <path class="a" d="M238.50994,68.97849c.60547.259.707,1.33355.728,1.7326v16.9646L230.52283,68.919h-1.792v-.03493h-3.37052v.09443a3.05633,3.05633,0,0,1,1.162,2.43607v18.0497c-.035.46549-.16449,1.38942-.721,1.6275v.091h3.96557v-.091c-.54955-.23456-.686-1.14449-.721-1.61009V71.8731h.063s3.5035,7.87507,7.161,15.63457c2.01956,4.27709,5.49155,4.10555,5.49155,4.10555V70.60257c.03151-.46207.16454-1.386.721-1.62408v-.09443h-3.97252Z"/>
    <path class="a" d="M204.83336,88.99407,197.9313,78.96652l8.06055-10.0346h-.71751v-.007h-3.773v.09453c1.141.616-.679,2.21551-1.87253,3.88851l.00353-.00353-4.599,5.78561h-.091V70.71344c.02451-.42351.13651-1.442.72451-1.69394V68.925h-4.284v.09453c.64749.27643.721,1.491.728,1.80951V89.16914h-.007s.01752,1.575-.7315,1.89346v.091h.7385v.00352h2.82454v-.00352h.735v-.091c-.7455-.31851-.7315-1.89346-.7315-1.89346l.00352-9.61814h.091l7.00006,10.47563c.5285.99047,1.09546,1.127,3.0135,1.127h2.17352v-.09443a9.50585,9.50585,0,0,1-2.387-2.06511"/>
    <path class="a" d="M256.44236,79.35468c.7455.31851.73151,1.89.73151,1.89l-.00705.014-.007,7.08413a7.03147,7.03147,0,0,1-3.976.98694c-2.681,0-4.0985-1.2355-4.0985-6.10048V75.70767c0-4.655,3.24454-4.81607,4.137-4.81607,1.82355-.2274,4.60607.50405,5.551,1.92156h.06655v-3.542a16.89408,16.89408,0,0,0-5.6561-.74555c-4.71454,0-6.993,2.835-6.993,7.27308v7.30458c0,6.167,2.27847,8.59958,6.993,8.59958a13.69812,13.69812,0,0,0,6.81111-1.66606v-10.78l-3.55253.00352Z"/>
    <path class="a" d="M215.09051,68.51823c-4.71107.00342-6.98607,2.83844-6.98255,7.26955l.007,7.294c.007,6.15656,2.28552,8.58558,6.99654,8.58206,4.70754-.00342,6.98254-2.43949,6.97554-8.59253l-.00347-7.29753c-.007-4.43112-2.28552-7.25908-6.99306-7.25556m.01752,20.77609c-2.67758.00353-4.09509-1.22845-4.09856-6.09l-.007-7.511c-.00353-4.64805,3.1955-4.80549,4.088-4.80549s4.095.1505,4.0985,4.79855l.007,7.511c.007,4.86146-1.41051,6.09354-4.088,6.097"/>
    <path class="a" d="M350.55989,68.98126h-2.83854v.00353h-.73508v.09453c.74907.31851.73508,1.89.73508,1.89V89.257s.014,1.575-.73508,1.89347v.091h4.2946v-.091c-.56-.238-.68958-1.18306-.721-1.638V70.71729c.0314-.45844.161-1.4.721-1.638v-.09453h-.721Z"/>
    <path class="a" d="M384.0598,68.98126H371.60312l-.00353.00353a2.922,2.922,0,0,1-.875-.21694h-.06644l-.80857,3.66452h.07007a2.67783,2.67783,0,0,1,2.26795-.98705h3.80807V89.257h-.00352s.014,1.575-.73145,1.89347v.091h4.291v-.091c-.59494-.2555-.70346-1.309-.7245-1.71851V71.44532h4.24558a1.24993,1.24993,0,0,1,1.309.98353h.07007l.7385-3.661h-.07006a2.02022,2.02022,0,0,1-1.06044.21341"/>
    <path class="a" d="M357.44908,74.25128a3.09934,3.09934,0,0,1,3.41949-3.26547,8.53265,8.53265,0,0,1,.87854-.03151v.007c1.28794-.03856,3.829.51794,4.76351,1.72545l-.09805-3.47546a16.0318,16.0318,0,0,0-4.66205-.714v.042c-.22046-.014-.44092-.02093-.665-.02093-3.731,0-6.53447,2.09651-6.53447,6.041,0,6.6886,10.353,6.1321,10.353,11.06363,0,2.471-1.82351,3.45806-3.892,3.58046l-1.358-.03151a6.66977,6.66977,0,0,1-5.11354-2.15942l.77354,3.829a17.08108,17.08108,0,0,0,5.383.854c3.55259.133,7.10506-1.582,7.10506-6.195,0-7.05956-10.353-6.349-10.353-11.24917"/>
    <path class="a" d="M343.42338,68.98126H330.63771v.00353h-.245a2.89562,2.89562,0,0,1-.875-.21694h-.07l-.80851,3.647h.07a2.84548,2.84548,0,0,1,2.56206-.95907v-.01047h3.5035V89.39c-.014.37448-.105,1.49793-.728,1.76048v.091h4.2945v-.091c-.6405-.273-.721-1.46654-.7315-1.799V71.44532h3.62607l-.007.01047c.763,0,1.645-.042,1.94254,1.03608h.07l.742-3.66111h-.07349a1.14769,1.14769,0,0,1-.48647.1505"/>
    <path class="a" d="M285.02046,79.64275v-.15392c2.863-.6476,3.81849-2.49556,3.81849-5.26756a5.97116,5.97116,0,0,0-.89247-2.96106c-.8295-1.22855-1.87952-2.27852-4.95957-2.27852h-7.245v.00353h-.72451v.091c.602.2555.70347,1.31251.72451,1.71851V89.43232c-.021.40952-.12252,1.463-.72451,1.71862v.09442h4.2945v-.014h3.58057c2.53049,0,6.68854-.553,6.68854-6.25451,0-3.05206-1.38952-4.963-4.56052-5.33411m-6.44009-8.197h4.00407a3.12221,3.12221,0,0,1,3.4195,3.36c0,2.15953-1.078,3.514-3.297,3.542h-4.12653Zm4.00407,17.32156h-4.00407v-7.952h3.017c2.898,0,5.08555.616,5.08555,4.16152a3.75743,3.75743,0,0,1-4.0985,3.79045"/>
    <path class="a" d="M320.49779,68.98126h-6.59406v.007h-.99753v.091c.82251.4375.973,1.71145.99753,2.9085v1.113c0,.077-.00353.154-.00353.224l.00353-.00342V89.432c-.021.406-.126,1.463-.728,1.71851v.091h4.29456v-.091c-.742-.31852-.73151-1.89005-.73151-1.89005V81.4309h3.72754c2.282,0,6.22653-1.04645,6.22653-6.10049,0-5.23958-3.206-6.34915-6.195-6.34915m-.6475,9.98558h-3.11155V71.44532h3.913c.616,0,3.14307.33956,3.14307,3.73107,0,3.48251-2.77553,3.79045-3.94454,3.79045"/>
    <path class="a" d="M308.422,86.81531a.06725.06725,0,0,1-.01047-.03493L302.6294,69.01769h-3.6015l-.007.02456h-1.01151v.091c.686.287.658.931.462,1.64149l-.20652.658c-.08049.231-.161.45854-.224.67548l.01047-.01047-5.34805,16.86312a4.52583,4.52583,0,0,1-1.575,2.18752v.09453h4.879v-.09453c-.7-.41646-.868-.644-.7455-1.267l1.81651-5.89754h7.44109l1.743,5.82406c.15749.67548.02446.91-.70005,1.34049v.09453h5.13805v-.09453a4.64354,4.64354,0,0,1-1.617-2.289Zm-10.63654-5.29555,2.905-9.884h.063l2.996,9.884Z"/>
    <path class="a" d="M441.3101,68.98126H438.475v.00353h-.7385v.09453c.5111.217.68253,1.015.7385,1.50146V89.64905c-.056.48642-.2274,1.28442-.7385,1.50146v.091h4.29461v-.091c-.55308-.238-.68959-1.155-.721-1.62056V70.83638c.014-.37459.10842-1.49452.72793-1.75706v-.09453h-.72793Z"/>
    <path class="a" d="M458.119,68.9756v.09453a.57125.57125,0,0,1,.38848.59505l-5.02958,18.61314h-.063l-5.082-19.29567h-3.08l.007.014-.48653.00353v.091a5.25564,5.25564,0,0,1,1.07806,1.92145l.483,1.62761c.07.27291.14345.54592.21341.81551l.02456-.01057,3.75553,12.73664c1.197,3.962,2.39046,4.8825,4.59208,5.502l1.56448-5.47755,5.10308-17.22362h-2.429Z"/>
    <path class="a" d="M473.992,88.76731h-.39552c-.077-.00342-.14708,0-.224-.00342v.00342H467.972V81.06378h6.94751a1.10027,1.10027,0,0,1,1.00446.63351h.07007V78.43182H475.924a1.81694,1.81694,0,0,1-1.01493.161h-1.15849v.00353H467.972V71.44575h7.39206a1.567,1.567,0,0,1,1.19341.88547h.07007l-.00352-3.50355h-.06655a.91289.91289,0,0,1-.49347.154H465.13686v.00353h-.721v.091c.55307.238.68958,1.15849.721,1.62045V89.53038c-.0314.46549-.16791,1.386-.721,1.62056v.09442h4.29461v-.014h7.63356l1.0395-4.088h-.07348a4.26158,4.26158,0,0,1-3.318,1.624"/>
    <path class="a" d="M517.69938,68.98126h-2.83854v.00353h-.73509v.09453c.50405.21352.679.994.73509,1.48747V89.663c-.05608.49-.231,1.27395-.73509,1.48747v.091h4.29461v-.091c-.55307-.238-.68958-1.155-.721-1.62056V70.69635c.0314-.46207.16791-1.38258.721-1.617v-.09453h-.721Z"/>
    <path class="a" d="M551.79424,68.99494l-.00353.00352-1.617.00352v.091a1.86772,1.86772,0,0,1,.56,2.43949l-3.437,8.21815-3.41607-8.44908-.63-1.53308c-.301-.6475-1.344-.76649-2.08253-.76649h-2.10356a5.30753,5.30753,0,0,1,1.87605,2.68452l4.81255,11.08457v6.76561c-.035.469-.175,1.36848-.71757,1.59952v.09453h.71757v.01741h2.83854v-.01741h.71393V91.1362c-.539-.22751-.679-1.10252-.71393-1.57859V82.77107l4.802-10.899h.00353l1.26348-2.8771Z"/>
    <path class="a" d="M535.98108,68.97774H523.4194l-.26244-.02094a3.00136,3.00136,0,0,1-.88206-.25549h-.06654l-.812,3.668h.07007a2.81065,2.81065,0,0,1,2.562-.91356v-.014h3.54906V89.25352h-.01057s.01751,1.575-.728,1.89346v.091h4.29461v-.091c-.55307-.238-.68947-1.15848-.721-1.62055V71.4418h3.598l-.00695.014c.76649,0,1.64844-.091,1.946.98705h.07l.19953-1.001h.04892v-.23446l.49-2.429h-.07a1.58148,1.58148,0,0,1-.707.19942"/>
    <path class="a" d="M500.79246,74.32338a3.10042,3.10042,0,0,1,3.423-3.26547,8.47219,8.47219,0,0,1,.875-.03151v.00353c1.29147-.035,3.829.52145,4.76351,1.729l-.09805-3.47546a16.0318,16.0318,0,0,0-4.662-.71405v.042c-.21694-.014-.44092-.02093-.665-.02093-3.731,0-6.53446,2.09651-6.53446,6.041,0,6.68859,10.35653,6.1321,10.35653,11.06363,0,2.47453-1.83055,3.45806-3.906,3.58046l-1.34755-.03151a6.67465,6.67465,0,0,1-5.11354-2.15942l.77706,3.829a17.765,17.765,0,0,0,5.789.87853v-.03856c3.46158-.154,6.69554-1.743,6.69554-6.181,0-7.056-10.353-6.349-10.353-11.24917"/>
    <path class="a" d="M433.24565,68.97742h-2.52707v.00705h-.72451v.091c.602.259.71052,1.31956.728,1.72556V87.73764l-8.71162-18.76022h-4.004v.00705h-1.162v.091a3.07,3.07,0,0,1,1.162,2.443V89.52611c-.03151.46559-.168,1.38952-.72109,1.62408v.09453H421.251v-.09453c-.546-.231-.686-1.1305-.71756-1.59952V71.93153h.05949s3.50356,7.87507,7.16114,15.63457c2.0195,4.27709,5.49154,4.10555,5.49154,4.10555V70.696c.03141-.46207.16791-1.38258.721-1.62056v-.091h-.721Z"/>
    <path class="a" d="M412.80869,68.98126h-2.83854v.00353h-.714v.09453c.546.231.68253,1.1305.714,1.59951V83.21947c0,4.86851-1.477,6.10049-4.1581,6.10049-2.681,0-4.16152-1.232-4.16152-6.10049V70.75585c.028-.43751.14356-1.43151.72451-1.67653v-.09453h-.72451v-.00353H398.819v.00353h-.7385v.09453c.74544.31851.73145,1.89.73145,1.89h.007V83.097c0,6.16008,2.275,8.59605,6.993,8.59605,4.7146,0,6.99664-2.436,6.99664-8.59605V70.96936h.00695s-.014-1.57153.735-1.89v-.09453h-.74192Z"/>
    <path class="a" d="M493.64991,88.6543l-4.221-7.76655a6.08675,6.08675,0,0,0,4.522-5.91153,5.81983,5.81983,0,0,0-5.943-5.97808l-3.36353-.00705v-.00694h-4.2945v.09453c.61941.26243.71394,1.38247.72451,1.75695V89.25982h-.007s.01752,1.57153-.728,1.89347v.08748h4.33306v-.08748c-.74555-.32194-.728-1.89347-.728-1.89347h-.00341l.00341-8.20757,2.18752.00352,4.74953,8.98453c.45854,1.20047,1.75706,1.16906,2.88756,1.16906l2.17.00342v-.09442a5.71725,5.71725,0,0,1-2.289-2.46406m-9.709-10.14665.00694-7.056,3.49309.00353a3.5303,3.5303,0,1,1-.03856,7.056Z"/>
    <path class="a" d="M47.27981,82.77727a78.73848,78.73848,0,0,0-36.21134-3.09393V23.61983a43.80883,43.80883,0,0,1,28.45526,1.51545V15.3597A48.74923,48.74923,0,0,0,.84486,17.66621V28.41838a.0704.0704,0,0,1,.021-.014V82.00031c-.007,0-.01405.00353-.021.00353v9.78957c22.4037-8.04308,44.13191.82951,44.13191.82951C75.94854,104.649,92.86069,98.482,92.86069,98.482V84.0478s-14.08061,8.83756-45.58088-1.27053"/>
    <path class="a" d="M82.60392,79.3896V69.34453l-.014-.00342V14.73l.014.00353V4.96151S61.6667-4.43606,39.543,5.1855V15.32509C51.31011,9.277,63.87873,10.04,72.38378,11.75158v55.052c-7.42005-1.24607-17.96564-1.827-28.51123,1.624V22.2412c2.00551-.7526,4.50807-1.631,7.04209-2.39409,1.505-.4515,6.54151-1.806,6.61505,3.381.03851,2.4115.077,3.724,0,6.95456a1.95133,1.95133,0,0,1-1.20052,1.918,17.86722,17.86722,0,0,1-2.89451.714v4.43806s.189-.03856,2.331-.26607c1.358-.14,1.76406.64055,1.80257,2.06853.084,3.122,0,9.4011,0,9.4011a3.11747,3.11747,0,0,1-.67554,2.065c-.735.80846-3.465.96249-3.465.96249l.007,4.2631a23.28785,23.28785,0,0,0,4.92454-.82951,5.32316,5.32316,0,0,0,3.0065-2.70556c.78753-2.107.66849-10.86058.37449-14.84714a3.4099,3.4099,0,0,0-2.555-3.08347,4.77538,4.77538,0,0,0,2.70551-4.02159V21.57619c0-5.93963-5.56152-7.8191-10.89909-6.31411a83.4534,83.4534,0,0,0-11.46611,3.7975l.007,4.88261V73.4221H39.55l-.02452,7.1716c18.9072-11.42765,43.07843-1.2041,43.07843-1.2041"/>
    <path class="a" d="M47.35965,24.16575V59.74711l-.01751,4.23149a28.93463,28.93463,0,0,1,3.53853-.784,65.5275,65.5275,0,0,1,18.03913-.30441V59.45306h.007V14.81026a14.63408,14.63408,0,0,0-4.33654-.49006V58.43108a71.90685,71.90685,0,0,0-12.8906.53555V22.77975a15.30074,15.30074,0,0,0-4.34,1.386"/>
  </g>
</svg>
